<svg xmlns="http://www.w3.org/2000/svg" width="24" height="24" viewBox="0 0 24 24">
  <g id="contact" transform="translate(-1506.122 -48.122)">
    <rect id="Rectangle_1829" data-name="Rectangle 1829" width="24" height="24" transform="translate(1506.122 48.122)" fill="none"/>
    <path id="Path_5364" data-name="Path 5364" d="M201.7-5696.21a20.32,20.32,0,0,1-5.435-4.175,20.377,20.377,0,0,1-4.174-5.434,7.518,7.518,0,0,1,1.083-8.847l.3-.3a3.009,3.009,0,0,1,2.13-.913,2.984,2.984,0,0,1,2.337,1.169l1.643,2.076a3.818,3.818,0,0,1-.281,4.923l-.007.007a.263.263,0,0,0,.006.369l3.913,3.912a.258.258,0,0,0,.186.076.266.266,0,0,0,.189-.078l.08-.08a3.689,3.689,0,0,1,2.6-1.046,3.642,3.642,0,0,1,2.31.8l2.026,1.66a3.03,3.03,0,0,1,1.142,2.205,3.022,3.022,0,0,1-.915,2.3l-.287.287a7.489,7.489,0,0,1-5.219,2.037A7.011,7.011,0,0,1,201.7-5696.21Zm-6.417-16.948-.3.3a4.972,4.972,0,0,0-.714,5.7l.095.149.069.162a8.7,8.7,0,0,0,.667,1.121,24.15,24.15,0,0,0,2.975,3.535,24.049,24.049,0,0,0,3.535,2.975,8.669,8.669,0,0,0,1.122.667l.159.072.122.073a4.452,4.452,0,0,0,2.311.594,4.894,4.894,0,0,0,3.413-1.287l.287-.287a.5.5,0,0,0,.169-.369.5.5,0,0,0-.208-.353l-2.026-1.66a1.081,1.081,0,0,0-.689-.225,1.127,1.127,0,0,0-.788.3l-.08.081a2.806,2.806,0,0,1-2,.828,2.8,2.8,0,0,1-2-.826l-3.913-3.914a2.83,2.83,0,0,1-.011-3.979,1.256,1.256,0,0,0,.1-1.541l-1.643-2.076a.45.45,0,0,0-.33-.2A.49.49,0,0,0,195.288-5713.158Z" transform="translate(1316.683 5765.688)" fill="#fff"/>
  </g>
</svg>
