<svg xmlns="http://www.w3.org/2000/svg" width="20" height="20" viewBox="0 0 20 20">
  <g id="fb" transform="translate(-1506.612 -48.612)">
    <rect id="Rectangle_1829" data-name="Rectangle 1829" width="20" height="20" transform="translate(1506.612 48.612)" fill="none"/>
    <path id="facebook" d="M16.1,7.758a8.64,8.64,0,0,1,4.4,1.2,8.807,8.807,0,0,1,2.2,13.3,8.883,8.883,0,0,1-4.92,2.938V18.928H19.5l.387-2.463H17.293V14.852a1.4,1.4,0,0,1,.3-.926,1.363,1.363,0,0,1,1.094-.416h1.563V11.352q-.034-.011-.639-.086a12.693,12.693,0,0,0-1.378-.086,3.442,3.442,0,0,0-2.473.882,3.408,3.408,0,0,0-.929,2.53v1.872h-1.97v2.463h1.97V25.2A8.67,8.67,0,0,1,9.5,22.257a8.8,8.8,0,0,1,2.2-13.3,8.643,8.643,0,0,1,4.4-1.2Z" transform="translate(1500.511 42.136)" fill="#fff" fill-rule="evenodd"/>
  </g>
</svg>
