<svg xmlns="http://www.w3.org/2000/svg" width="24" height="24" viewBox="0 0 24 24">
  <g id="fb" transform="translate(-1506.122 -48.122)">
    <rect id="Rectangle_1829" data-name="Rectangle 1829" width="24" height="24" transform="translate(1506.122 48.122)" fill="none"/>
    <path id="facebook" d="M17.81,7.758A10.333,10.333,0,0,1,23.073,9.19,10.532,10.532,0,0,1,25.707,25.1a10.624,10.624,0,0,1-5.884,3.514v-7.5h2.045l.462-2.946h-3.1V16.242a1.677,1.677,0,0,1,.357-1.108,1.63,1.63,0,0,1,1.308-.5h1.87v-2.58q-.04-.013-.764-.1a15.18,15.18,0,0,0-1.648-.1A4.116,4.116,0,0,0,17.4,12.906a4.076,4.076,0,0,0-1.111,3.026v2.238H13.933v2.946h2.356v7.5A10.369,10.369,0,0,1,9.912,25.1,10.52,10.52,0,0,1,12.546,9.19,10.337,10.337,0,0,1,17.81,7.758Z" transform="translate(1500.312 41.937)" fill="#fff" fill-rule="evenodd"/>
  </g>
</svg>
