<svg xmlns="http://www.w3.org/2000/svg" width="24" height="24" viewBox="0 0 24 24">
  <g id="ins" transform="translate(-392 -114)">
    <rect id="Rectangle_1784" data-name="Rectangle 1784" width="24" height="24" transform="translate(392 114)" fill="none"/>
    <g id="instagram_4_" data-name="instagram (4)" transform="translate(394.097 116.096)">
      <path id="Path_4902" data-name="Path 4902" d="M-1180.525-24.061c-1.876-1.876-1.661-4.383-1.661-8.235,0-3.764-.244-6.331,1.661-8.236a5.915,5.915,0,0,1,4.156-1.6c1.823-.081,6.337-.085,8.16,0,3.727.171,5.593,2.28,5.756,5.756.081,1.824.086,6.336,0,8.16-.136,2.946-1.52,4.585-3.355,5.3-1.349.522-2.666.519-6.482.519-.771,0-1.495.011-2.174.011C-1177.06-22.389-1179.01-22.546-1180.525-24.061Zm15.2-1.259c1.227-1.233,1.149-2.9,1.15-6.976,0-2.642-.011-2.956-.058-4-.208-4.576-3.658-4.115-8.055-4.115l-.038-.024c-2.646,0-2.956.012-4.007.05-4.577.234-4.108,3.518-4.108,8.078,0,3.369-.252,5.591,1.139,6.975,1.207,1.211,2.862,1.15,6.988,1.15C-1168.306-24.184-1166.574-24.072-1165.325-25.321Zm-12.047-6.975a5.081,5.081,0,0,1,5.082-5.082,5.081,5.081,0,0,1,5.082,5.082,5.082,5.082,0,0,1-5.082,5.082A5.081,5.081,0,0,1-1177.372-32.3Zm1.784,0a3.3,3.3,0,0,0,3.3,3.3,3.3,3.3,0,0,0,3.3-3.3,3.3,3.3,0,0,0-3.3-3.3A3.3,3.3,0,0,0-1175.588-32.3Zm7.394-5.283a1.187,1.187,0,0,1,1.188-1.187,1.187,1.187,0,0,1,1.188,1.188,1.187,1.187,0,0,1-1.187,1.188A1.187,1.187,0,0,1-1168.194-37.578Z" transform="translate(1182.196 42.196)" fill="#121212"/>
    </g>
  </g>
</svg>
