<svg xmlns="http://www.w3.org/2000/svg" width="24" height="24" viewBox="0 0 24 24">
  <g id="lenta" transform="translate(-1506.122 -48.122)">
    <rect id="Rectangle_1829" data-name="Rectangle 1829" width="24" height="24" transform="translate(1506.122 48.122)" fill="none"/>
    <path id="Path_5360" data-name="Path 5360" d="M-1722.593,33.976a1.286,1.286,0,0,1-1.285-1.286,1.286,1.286,0,0,1,1.285-1.285h6.647a1.286,1.286,0,0,1,1.285,1.285,1.286,1.286,0,0,1-1.285,1.286Zm8.648-1.265a1.278,1.278,0,0,1,.336-.926,1.282,1.282,0,0,1,.88-.417,7.863,7.863,0,0,0,7.125-8.06,7.864,7.864,0,0,0-7.613-7.609c-.079,0-.161,0-.24,0a7.814,7.814,0,0,0-7.817,7.142,1.279,1.279,0,0,1-1.279,1.17c-.039,0-.078,0-.117-.006a1.279,1.279,0,0,1-.871-.457,1.276,1.276,0,0,1-.293-.94,10.4,10.4,0,0,1,3.36-6.763,10.4,10.4,0,0,1,7.014-2.72c.159,0,.322,0,.481.011a10.379,10.379,0,0,1,7.065,3.214,10.377,10.377,0,0,1,2.885,7.205,10.34,10.34,0,0,1-2.711,7.041,10.341,10.341,0,0,1-6.766,3.34c-.047,0-.1.006-.154.006A1.283,1.283,0,0,1-1713.945,32.711Zm-8.648-2.058a1.287,1.287,0,0,1-1.285-1.286,1.286,1.286,0,0,1,1.285-1.285h4.985a1.286,1.286,0,0,1,1.285,1.285,1.287,1.287,0,0,1-1.285,1.286Zm10.722-3.7-2.492-2.492a1.278,1.278,0,0,1-.376-.909V19.4a1.288,1.288,0,0,1,1.286-1.286,1.287,1.287,0,0,1,1.285,1.286v3.621l2.117,2.116a1.288,1.288,0,0,1,0,1.819,1.28,1.28,0,0,1-.909.376A1.278,1.278,0,0,1-1711.871,26.953Zm-10.722.377a1.287,1.287,0,0,1-1.285-1.286,1.287,1.287,0,0,1,1.285-1.286h3.323a1.288,1.288,0,0,1,1.286,1.286,1.288,1.288,0,0,1-1.286,1.286Z" transform="translate(3231.576 36.573)" fill="#fff"/>
  </g>
</svg>
