<svg xmlns="http://www.w3.org/2000/svg" width="144" height="34" viewBox="0 0 144 34">
  <g id="Logo" transform="translate(-386 -19)">
    <rect id="Rectangle_1" data-name="Rectangle 1" width="144" height="34" transform="translate(386 19)" fill="none"/>
    <path id="br-logo" d="M108.147,1.537V.207a2.567,2.567,0,0,0-2.015,0c-.2.3-.171.726-.637.859a5.392,5.392,0,0,1-2.065-.1l-.522-.9h-1.741a7.071,7.071,0,0,0-.633.849c-.065.117.048.331.1.622Zm30.826,11.181h-1.628l-.557.862c-.779.156-1.548.372-2.22-.41-.718-.836-1.6-.592-2.451-.312V14.7h7.206C139.179,13.968,139.506,13.341,138.973,12.718Zm-70.987-.1a4.561,4.561,0,0,0,4.342-3.815H69.8L68.388,9.884a7.232,7.232,0,0,1-2.64-.147A3.15,3.15,0,0,1,64.595,7.83c.563-.534.109-1.5,1.3-2.167l1.795-.6A5.592,5.592,0,0,1,70.34,6.642c.832-.125,1.6.215,2.293-.321V2.83a6,6,0,0,0-3.592.319c-1.187-.806-2.5-.222-3.5-.371A8.1,8.1,0,0,0,61.64,5.9V8.931C63.439,12.12,64.977,13.006,67.986,12.622Zm-42.838-1.96a2.209,2.209,0,0,0,.126,1.946,18.274,18.274,0,0,0,3.918-.094c.831-1.186-.331-2.047-.124-3.1.881.445.919,1.287,1.448,1.8a4.165,4.165,0,0,0,4.2,1.278,1.192,1.192,0,0,0,.857-.835,1.651,1.651,0,0,0-.9-1.665c-.619-.16-1.316.135-1.849-.373a5.074,5.074,0,0,1-1.145-2.079A4.674,4.674,0,0,1,35.1,5.251L36.016,3.5c-.734-.228-1.268-.842-2.047-.707-2.148.258-2.93,2.559-5.2,3.436C29,4.887,30.124,3.839,29.1,2.763a22.086,22.086,0,0,0-4.056.149V4.586c.24.506,1,.247,1.027.856v4.684ZM17.525,6.017c-.378.512-1.019.764-.532,1.627.364-.213.905.332,1.286-.367C18.375,6.737,17.925,6.5,17.525,6.017Zm6.01,6.482H18.569c-.471-.4-.14-1.071-.185-1.619.108-.627,1.188-.232.989-1.281a6.982,6.982,0,0,0-3.661-.092c-.319,1.036.675.8.924,1.3v1.683H11.421a1.1,1.1,0,0,1-.23-.381,4.461,4.461,0,0,1-.012-.771,1.729,1.729,0,0,1,1.371-.977c.789-1.555,1.6-3.146,2.467-4.865a2.789,2.789,0,0,1-.342-2.669H20.8c.6.451.253,1.125.311,1.789l-.861.507C21.088,7.614,22.853,9.715,23.536,12.5ZM7.351,10.156C6.8,8.508,5.669,8.746,4.614,8.918c-.385.434-.788.724-.412,1.433A6.524,6.524,0,0,0,7.351,10.156Zm1.77-2.668c.32.8.968,1.4.874,2.566a5.514,5.514,0,0,1-3.483,2.521H.158C-.436,10.832.841,9.342.771,7.65.706,6.054-.328,4.6.18,2.868H9.348V5.84c-.69.581-1.549.042-2.312.308L6.442,5.058h-1.7a1.191,1.191,0,0,0-.7,1.316c.988.511,2.114.027,3.615.391ZM78.8,10.415c-.07-.56-.43-.787-.974-.954C77.691,10.462,78.247,10.439,78.8,10.415Zm-3.871-.367v-4.6c-.141-.473-.565-.475-.849-.66-.472-.781-.149-1.367.465-1.934h4a2.394,2.394,0,0,1,.237,1.66c-.094.581-1.417.35-.895,1.337.151.055.35.2.462.156a7.751,7.751,0,0,0,2.044-1.776A4.182,4.182,0,0,1,83.868,2.79a3.029,3.029,0,0,1,1.5,1.316c-1.02,1.928-3.839,1.29-4.721,3.336a4.878,4.878,0,0,0,1.775,2.349,1.423,1.423,0,0,0,1.7-.421l1.424,1.463c-.134.278-.182.6-.369.729-2.2,1.507-3.272,1.425-5.307-.33-.324-.279-.509-.752-1.026-.776v2.028a25.165,25.165,0,0,1-4.633.115C73.249,11.374,74.43,10.8,74.928,10.048ZM51.052,5.222v4.949l-.967.507a2.177,2.177,0,0,0,.18,1.97c1.511-.139,3.128.211,4.689-.2V10.784c-.27-.505-1.044-.205-1.051-1.074.2-.293-.3-.895.358-1.459a12.086,12.086,0,0,1,2.76.138c.838,1.472-1.187,2.722-.124,4.153h3.987a2.2,2.2,0,0,0,.1-1.884l-.91-.52V5.122c.464-.269,1.155-.02,1.491-.565-.068-.582.305-1.26-.3-1.717H56.905c-.874,1.127.279,2.039.306,3.208a9.95,9.95,0,0,1-3.228-.157c-.358-1.12.99-.753,1.01-1.661-.192-.291.313-.893-.292-1.374H50.177a2.179,2.179,0,0,0-.07,1.879Zm35.636,7.3h4.191a2.289,2.289,0,0,0-.335-2.371,5.2,5.2,0,0,1,2.539-1.79c1.108,1.65-1.366,2.474-.752,4.153h4.778a4.552,4.552,0,0,0,.052-1.166c-1.053-4.354-.771-3.494,0-7.24a1.144,1.144,0,0,0-.265-1.2H92.77A2.618,2.618,0,0,0,93.191,5.4c-1.188.063-1.6,1.174-2.485,1.576-1.134-1.373,1.088-2.64.059-4.106H86.713c-.53,1.7.471,3.18.541,4.758C87.331,9.324,86.086,10.848,86.687,12.524Zm12.2.006h4.15a2.639,2.639,0,0,0-.172-2.485c.916-.724,1.774-1.39,2.615-2.077.2-.167.313-.193.449.121v2.065l-.929.524a2.143,2.143,0,0,0,.106,1.856h4.48c.864-1.321-.55-1.8-.811-2.549V5.4c.254-.595,1.011-.336,1.07-1.143-.185-.3.284-.9-.262-1.391h-4.539c-.426.939,0,1.736.112,2.544-.962.222-1.432,1.21-2.424,1.663,0-.749,0-1.283,0-1.817.246-.569,1.064-.782.987-1.562a1.673,1.673,0,0,0-.654-.832H98.943c-.532,1.716.556,3.159.563,4.765C99.513,9.305,98.452,10.846,98.89,12.53ZM37.514,12.5h4.577A2.4,2.4,0,0,0,41.6,10c1.034-.378,1.4-1.645,2.479-1.731,1.516,1.729-1.509,2.647-.478,4.262h4.63c.448-1.73-.591-3.169-.625-4.778-.036-1.683,1.14-3.2.617-4.909H43.976l-.674.938c.068.549.77.892.478,1.53-.607.407-.914,1.348-2.113,1.178a2.18,2.18,0,0,1,.349-1.738c.417-.5.319-1.177-.037-2a20.972,20.972,0,0,0-4.56.272c1.2,2.313.846,4.655.91,6.954C37.9,10.788,36.609,11.328,37.514,12.5Zm2.316,8.735a4.082,4.082,0,0,0-3.848-5.293c-2.286-.087-4.578-.018-6.711-.018a16.279,16.279,0,0,0-1.187,1.726c-.307.6-.874,1.13-.735,1.946l1.4.328c-1.234,2.074-2.687,3.965-3.858,6.04a4.643,4.643,0,0,1-3.538,2.711c-.762,1.377-1.877,2.558-2.26,4.22h3.02c3.494-.661,4.727-2.744,5.968-4.891,1.609-2.784,3.346-5.5,4.959-8.126a1.563,1.563,0,0,1,1.974.849,5.645,5.645,0,0,1-.028,1.845c-1.028,1.728-2.688,1.877-4.062,2.449a14.99,14.99,0,0,1-1.91,3.3C34.584,28.954,38.439,26.411,39.83,21.231ZM104.354,19.5a10.708,10.708,0,0,0,2.127-3.457c-2.771-.525-5.006.669-7.208,1.908-2.613,1.471-4.365,3.8-6.011,6.192-.326.474-.556.642-1.128.278a4.887,4.887,0,0,1,1.2-2.309,38.542,38.542,0,0,1,4.18-4.682c.347-.338.986-.625.508-1.4H91.745c-.233.27-.621.515-.677.821-.208,1.138-2.107,1.648-1.2,3.176A14.15,14.15,0,0,1,87.653,23.1a13.97,13.97,0,0,0-1.709,3.678l.824,1.523c1.613.779,2.826-.227,4.371-.8-.469,1.847-1.07,3.475-.522,5.158.235.383.961.171.963.81h1.109c.688-.751,1.715-.719,2.57-1.087A8,8,0,0,0,99.4,28.1c-1.392-.309-1.993,1.9-3.325.638C96.421,24.344,100.352,20.444,104.354,19.5Zm-15.981-1.66c.294-.582,1.17-.914.889-1.777-5.39-.485-8.6-.026-12.9,2.469-2.709,1.571-5.126,3.365-6.51,6.306-.551,1.171-.439,2.451-1.1,3.57.767,1.187.672,2.678,2.143,3.953.3.249,1.309.3,1.827,1.1h4.437c.681-1.1,2.063-.877,2.982-1.573,3.646-2.763,4.91-6.469,4.708-11.015A9.373,9.373,0,0,0,79.985,22.6v2.612c-.865,1.446-1.244,3.024-2.713,3.8-.88.134-1.695.135-2.215-.809a4.283,4.283,0,0,1,.542-3.3c1.164-2.328,3.251-3.56,5.513-4.573,1.993-.892,4.141-.465,6.324-.634C87.732,19.116,88.052,18.48,88.373,17.843ZM63.934,22.279l1.418-2.6H71.92l1.843-3.693h-12.5a8.779,8.779,0,0,0-2.249,3.552c.433.478,1.216-.117,1.5.8-1.255,1.93-2.59,3.943-3.884,5.982A6.855,6.855,0,0,1,51.7,29.8c-.125,1.49-1.683,2.211-1.723,3.668h3.883c.166-.807.879-.394,1.322-.584a10.057,10.057,0,0,0,5.4-5.06c.41-.87.741-1.878,1.761-2.342.9.9.9.9.892,2.673a3.47,3.47,0,0,1-2.583.978,13.813,13.813,0,0,1-2.272,2.906,1.575,1.575,0,0,0-.633,1.428h4.437c.085-.144.148-.4.256-.415,3.015-.554,4.582-2.682,5.795-4.941.128-1.612.131-2.94-.886-4.077A6.4,6.4,0,0,0,63.934,22.279ZM50.953,20.473l-.693-.645A30.728,30.728,0,0,0,46.5,23.72,2.462,2.462,0,0,0,48.687,24C49.958,23.068,50.331,21.692,50.953,20.473Zm-3.7,5.951H43.687l1.561,3.229A5.791,5.791,0,0,0,47.25,26.424Zm4.955-.672a48.26,48.26,0,0,0-4.445,7.714H43.878L42,29.809c-1.747,1.5-3.3,3.276-5.923,3.165a.482.482,0,0,0-.516.492H31.675c-.266-1.844,1.262-2.888,2-4.4H36.9l3.025-2.983V24.3a2.97,2.97,0,0,0,2.542-1.316c1-1.671,2.542-2.858,3.79-4.3a7.422,7.422,0,0,1,7.3-2.666,6.963,6.963,0,0,1,1.929,1.9c.378,2.376-1.472,3.945-2.36,6.256,1.159-.309,1.651-1.837,2.813-.942A24.242,24.242,0,0,1,53.553,27.4l-.978.058C51.9,26.935,53.258,26.322,52.206,25.752Zm83.157-8.3c-3,2.509-5.876,5.208-7.5,8.907A5.353,5.353,0,0,1,126.1,29.1l-1.211-.128c.082-.928-.28-1.793.28-2.646,1.682-2.563,3.164-5.288,5.779-7.1a23.715,23.715,0,0,0,3.462-3.209h-8.3a9.205,9.205,0,0,0-2.251,3.608l.995.413a21.146,21.146,0,0,0-6.059,8.578V31.76c.281,1.143,1.395.933,1.622,1.706h1.664c1.243-.888,2.838-1.132,4.156-2.572.19,1.5,1.184,1.923,1.946,2.572h.555c.483-1.075,1.612-.378,2.408-.864a20.6,20.6,0,0,0,3.467-3.07c.192-.186.178-.307-.166-.433-.773-.483-1.369.806-2.221.372l-.565-.6c.028-.091.052-.167.075-.243,1.158-3.821,2.857-7.179,7.174-8.368a1.859,1.859,0,0,0,.839-.693c.808-1.058,1.579-2.146,2.475-3.376A7.526,7.526,0,0,0,135.363,17.455Zm-20.977,9.637a3.949,3.949,0,0,0-.548,1.631l.533.694c.963.541,1.706-1.022,2.612-.124-.914,1.4-2.39,2.183-3.6,3.257-.749.664-1.919-.161-2.389.915h-.554a6.977,6.977,0,0,1-2.2-2.322,6.558,6.558,0,0,1-4.192,1.924c-.093,0-.179.26-.269.4h-1.109c-.174-.84-1.453-.442-1.7-1.36v-3.4a20.01,20.01,0,0,1,5.379-7.957c.409-.747-.21-.961-.391-1.53.83-.92,1.218-2.274,2.446-3.212h8.207a22.24,22.24,0,0,1-2.165,2.168c-2.507,1.881-4.293,4.386-6.228,6.772a4.53,4.53,0,0,0-1.049,3.8c.319.436.785.341,1.4.271,1.728-2.286,2.636-5.179,4.638-7.446s4.056-4.372,7.177-5.58h3.6c-1.046,2.935-1.519,3.335-4.112,4.637A11.439,11.439,0,0,0,114.386,27.093Z" transform="translate(386.523 19.523)" fill="#fff" fill-rule="evenodd"/>
  </g>
</svg>
