<svg xmlns="http://www.w3.org/2000/svg" width="414" height="100" viewBox="0 0 414 100">
  <g id="Logo" transform="translate(-386.212 -18.774)">
    <rect id="Rectangle_1" data-name="Rectangle 1" width="414" height="100" transform="translate(386.212 18.774)" fill="none"/>
    <path id="br-logo" d="M313.149,4.451V.6C310.764-.082,309-.306,307.315.591c-.575.872-.5,2.1-1.844,2.488-1.923-.022-4.023.521-5.981-.276-.557-.962-1.054-1.823-1.511-2.614h-5.04a20.477,20.477,0,0,0-1.832,2.46c-.188.34.139.959.3,1.8Zm89.258,32.375h-4.715c-.454.7-1,1.551-1.614,2.5-2.255.451-4.483,1.078-6.427-1.186-2.079-2.422-4.623-1.715-7.1-.9v5.33h20.866C403,40.445,403.951,38.63,402.407,36.827Zm-205.549-.28c7.051-.9,10.629-4.025,12.572-11.045h-7.315c-1.375,1.048-2.819,2.147-4.091,3.119-2.921-.044-5.593.507-7.643-.425-2.274-1.594-2.706-3.609-3.342-5.523,1.629-1.545.316-4.337,3.75-6.274,1.111-.372,3.537-1.185,5.2-1.739,3.717.716,5.679,2.928,7.69,4.572,2.409-.362,4.62.622,6.641-.929V8.194c-3.885-.421-7.221-.74-10.4.923-3.437-2.334-7.242-.643-10.125-1.075-5.367,1.907-8.562,5.323-11.309,9.032v8.787C183.693,35.094,188.146,37.659,196.858,36.547ZM72.817,30.872a6.4,6.4,0,0,0,.366,5.636c3.9-.033,8.027.559,11.345-.273,2.406-3.435-.959-5.928-.358-8.983,2.552,1.289,2.66,3.725,4.192,5.212,3.461,3.358,7.4,5,12.176,3.7a3.452,3.452,0,0,0,2.481-2.418c.3-2.541-1.091-3.743-2.612-4.821-1.792-.464-3.81.39-5.353-1.081a14.693,14.693,0,0,1-3.317-6.02,13.534,13.534,0,0,1,9.9-6.617c1-1.92,1.815-3.476,2.644-5.061-2.125-.661-3.672-2.437-5.928-2.048-6.22.748-8.483,7.411-15.06,9.948.678-3.893,3.93-6.928.952-10.045-3.861.218-7.822-.51-11.744.432v4.846c.7,1.464,2.889.716,2.974,2.479V29.319C74.59,29.838,73.712,30.351,72.817,30.872ZM50.746,17.423c-1.094,1.483-2.952,2.212-1.54,4.711,1.055-.618,2.621.961,3.725-1.064C53.205,19.508,51.9,18.828,50.746,17.423Zm17.4,18.769H53.769c-1.364-1.169-.4-3.1-.535-4.688.313-1.815,3.44-.672,2.864-3.709-3.453-1.305-7.1-.848-10.6-.267-.925,3,1.955,2.323,2.676,3.77v4.873h-15.1a3.181,3.181,0,0,1-.665-1.1,12.918,12.918,0,0,1-.035-2.233,5.006,5.006,0,0,1,3.97-2.83c2.284-4.5,4.619-9.11,7.142-14.088-.895-2-2.568-4.243-.991-7.728H60.224c1.741,1.305.732,3.257.9,5.181-.821.481-1.691.994-2.494,1.467C61.062,22.048,66.171,28.131,68.15,36.192ZM21.285,29.408c-1.59-4.773-4.87-4.082-7.924-3.584-1.115,1.258-2.282,2.1-1.193,4.149C14.879,30.234,17.86,30.683,21.285,29.408Zm5.125-7.727c.927,2.329,2.8,4.049,2.531,7.431a15.967,15.967,0,0,1-10.085,7.3H.458c-1.72-5.048,1.979-9.361,1.776-14.262C2.044,17.529-.951,13.316.52,8.3H27.069V16.91c-2,1.682-4.484.121-6.694.891l-1.72-3.154h-4.91a3.45,3.45,0,0,0-2.012,3.811c2.862,1.478,6.122.078,10.469,1.132ZM228.17,30.157c-.2-1.621-1.245-2.279-2.819-2.761C224.961,30.293,226.569,30.226,228.17,30.157ZM216.961,29.1V15.762c-.409-1.369-1.637-1.375-2.457-1.91-1.366-2.263-.43-3.959,1.346-5.6h11.572c1.164,1.685.722,3.268.686,4.807-.271,1.682-4.1,1.013-2.591,3.871.438.159,1.013.591,1.337.453,2.51-1.08,4-3.362,5.919-5.142,2.787-2.593,5.729-4.664,10.075-4.162a8.771,8.771,0,0,1,4.344,3.811c-2.954,5.583-11.117,3.735-13.669,9.659,1.136,2.669,2.579,5.159,5.14,6.8a4.12,4.12,0,0,0,4.915-1.219c1.5,1.54,2.769,2.845,4.123,4.235-.388.805-.527,1.744-1.067,2.112-6.37,4.364-9.475,4.127-15.368-.954-.937-.807-1.473-2.177-2.972-2.247V36.15c-4.574.832-9.03.332-13.416.334C212.1,32.935,215.518,31.274,216.961,29.1ZM147.824,15.12V29.451l-2.8,1.469a6.3,6.3,0,0,0,.52,5.705c4.375-.4,9.057.611,13.578-.572V31.225c-.783-1.462-3.022-.594-3.042-3.111.569-.85-.865-2.591,1.037-4.225,2.48.308,5.349-.53,7.993.4,2.427,4.263-3.437,7.881-.359,12.027H176.3a6.366,6.366,0,0,0,.3-5.456l-2.636-1.507V14.831c1.343-.78,3.345-.057,4.317-1.637-.2-1.685.884-3.649-.883-4.972H164.774c-2.532,3.265.807,5.905.886,9.288-3.508-.062-6.559.589-9.347-.456-1.036-3.242,2.866-2.182,2.925-4.808-.556-.842.905-2.585-.846-3.979h-13.1a6.31,6.31,0,0,0-.2,5.44ZM251.01,36.263h12.134c.722-2.66.845-4.9-.969-6.866,2.047-2.312,4.261-4.381,7.351-5.184,3.208,4.776-3.956,7.163-2.179,12.025h13.836a13.182,13.182,0,0,0,.15-3.376c-3.048-12.608-2.233-10.118-.006-20.963.245-1.2.319-2.647-.766-3.473H268.622c-.563,2.653-.709,4.881,1.219,7.214-3.44.183-4.626,3.4-7.2,4.562-3.284-3.976,3.149-7.646.171-11.89H251.084c-1.534,4.908,1.363,9.208,1.567,13.777C252.872,27,249.269,31.412,251.01,36.263Zm35.335.017H298.36c1.27-2.763.6-5.092-.5-7.2,2.653-2.1,5.137-4.025,7.572-6.013.592-.484.907-.559,1.3.351V29.4c-.908.513-1.791,1.011-2.689,1.516a6.206,6.206,0,0,0,.307,5.373h12.973c2.5-3.825-1.591-5.211-2.347-7.381V15.638c.736-1.723,2.927-.973,3.1-3.311-.536-.88.824-2.595-.759-4.028H304.175c-1.234,2.72.014,5.026.324,7.366-2.784.643-4.147,3.5-7.019,4.816,0-2.169,0-3.716,0-5.262.712-1.647,3.081-2.264,2.857-4.522a4.843,4.843,0,0,0-1.894-2.41H286.5c-1.54,4.968,1.609,9.146,1.629,13.8C288.148,26.944,285.076,31.406,286.345,36.28Zm-177.721-.1h13.254c.609-2.72.763-4.973-1.429-7.241,3-1.1,4.044-4.764,7.178-5.011,4.389,5.007-4.37,7.665-1.383,12.34h13.406c1.3-5.01-1.712-9.176-1.81-13.834-.1-4.873,3.3-9.261,1.788-14.213h-12.29c-.7.97-1.293,1.8-1.953,2.715.2,1.591,2.229,2.583,1.383,4.43-1.757,1.18-2.647,3.9-6.119,3.411-.043-1.774-.416-3.314,1.01-5.032,1.206-1.451.923-3.409-.106-5.794-4.263.289-8.238-.507-13.2.788,3.469,6.7,2.451,13.478,2.634,20.136C109.746,31.239,106,32.8,108.624,36.183Zm6.707,25.294c2.1-7.8-3.011-15.017-11.142-15.326C97.57,45.9,90.934,46.1,84.757,46.1a47.14,47.14,0,0,0-3.437,5c-.888,1.74-2.531,3.271-2.128,5.635l4.046.951c-3.574,6.005-7.78,11.48-11.172,17.489-2.094,3.708-5.165,7.4-10.244,7.85-2.205,3.987-5.435,7.407-6.543,12.219h8.744C74.141,93.328,77.709,87.3,81.3,81.083c4.659-8.062,9.688-15.914,14.359-23.531,3-.8,4.531.459,5.715,2.458.069,2.068.413,4.17-.082,5.343-2.978,5-7.783,5.434-11.762,7.091A43.4,43.4,0,0,1,84,82.005C100.142,83.838,111.3,76.475,115.331,61.477Zm186.835-5c3.007-2.672,4.3-6.352,6.158-10.01-8.025-1.521-14.5,1.937-20.872,5.524-7.567,4.259-12.64,10.991-17.4,17.929-.945,1.374-1.609,1.859-3.266.8.292-2.656,1.964-4.618,3.489-6.687a111.6,111.6,0,0,1,12.1-13.556c1.005-.978,2.856-1.809,1.472-4.054h-18.19c-.675.783-1.8,1.493-1.959,2.377-.6,3.295-6.1,4.773-3.472,9.2-1.331,3.519-4.282,5.923-6.417,8.879-2.356,3.257-3.585,6.82-4.948,10.65.862,1.594,1.715,3.176,2.385,4.411,4.67,2.255,8.184-.657,12.658-2.315-1.357,5.348-3.1,10.062-1.511,14.934.681,1.108,2.783.5,2.787,2.345h3.211c1.991-2.174,4.966-2.082,7.44-3.147,5.666-2.442,9.315-6.636,12.005-12.39-4.031-.894-5.77,5.5-9.627,1.848C279.195,70.49,290.576,59.2,302.165,56.474ZM255.89,51.667c.852-1.685,3.387-2.645,2.576-5.146-15.606-1.405-24.89-.076-37.347,7.15-7.845,4.549-14.843,9.745-18.849,18.261-1.594,3.392-1.27,7.1-3.195,10.337,2.22,3.436,1.946,7.755,6.2,11.447.877.721,3.79.881,5.29,3.187h12.849c1.971-3.176,5.973-2.539,8.635-4.556,10.558-8,14.216-18.732,13.633-31.894-5.611.114-9.813,2.382-14.084,4.986V73c-2.5,4.187-3.6,8.757-7.855,11.015-2.548.387-4.907.39-6.412-2.344-1.064-3.306.015-6.431,1.57-9.542,3.37-6.74,9.413-10.307,15.963-13.241,5.77-2.584,11.99-1.347,18.312-1.837C254.035,55.351,254.96,53.509,255.89,51.667ZM185.127,64.51c1.505-2.76,2.733-5.01,4.1-7.522h19.017c1.855-3.719,3.52-7.055,5.337-10.694H177.4c-3.591,2.885-4.854,6.771-6.512,10.285,1.254,1.383,3.52-.338,4.339,2.326-3.634,5.589-7.5,11.417-11.245,17.321-3.364,5.3-7.755,9.134-14.279,10.056-.361,4.314-4.873,6.4-4.989,10.621h11.243c.481-2.336,2.545-1.14,3.828-1.691,7-3,12.332-7.67,15.624-14.651,1.187-2.518,2.147-5.439,5.1-6.782,2.616,2.612,2.616,2.612,2.582,7.741a10.048,10.048,0,0,1-7.478,2.833c-2.174,3.249-3.967,6.156-6.579,8.416A4.562,4.562,0,0,0,167.2,96.9h12.849c.245-.416.43-1.145.74-1.2,8.73-1.6,13.267-7.766,16.779-14.308.371-4.668.379-8.513-2.565-11.806C192.394,66.658,188.862,65.458,185.127,64.51Zm-37.589-5.229-2.008-1.867c-3.774,3.585-7.706,6.974-10.886,11.271a7.13,7.13,0,0,0,6.333.8C144.658,66.795,145.737,62.811,147.538,59.281ZM136.817,76.513H126.5c1.759,3.639,3.092,6.394,4.519,9.349A16.768,16.768,0,0,0,136.817,76.513Zm14.349-1.947c-5.313,6.807-8.9,14.683-12.871,22.337H127.052c-1.855-3.608-3.71-7.212-5.446-10.588-5.058,4.34-9.545,9.486-17.15,9.164a1.4,1.4,0,0,0-1.5,1.424H91.718c-.769-5.338,3.655-8.363,5.795-12.735h9.331l8.76-8.638V70.363c3.06-.2,5.8-1.193,7.361-3.809,2.893-4.838,7.361-8.274,10.975-12.459,5.427-6.286,12.078-9.126,21.125-7.72,1.99,1.065,3.866,3.258,5.586,5.489,1.093,6.879-4.264,11.423-6.835,18.115,3.357-.894,4.78-5.319,8.144-2.728-1.588,4.322-4.383,8.006-6.894,12.085l-2.831.168C150.276,77.993,154.212,76.217,151.166,74.566ZM391.953,50.543c-8.694,7.266-17.016,15.08-21.721,25.791-1.232,2.8-2.083,5.964-5.086,7.916-.9-.1-1.921-.2-3.507-.37.238-2.688-.812-5.192.81-7.663,4.871-7.422,9.16-15.312,16.732-20.57,3.59-2.493,6.482-5.607,10.023-9.292H365.178c-3.367,3-4.944,6.7-6.517,10.448l2.88,1.2A61.228,61.228,0,0,0,344,82.837v9.126c.813,3.309,4.038,2.7,4.7,4.94h4.819c3.6-2.572,8.217-3.279,12.033-7.447.55,4.33,3.428,5.567,5.634,7.447h1.606c1.4-3.114,4.666-1.094,6.972-2.5,3.971-2.423,6.826-5.791,10.039-8.889.557-.538.516-.888-.481-1.253-2.238-1.4-3.965,2.334-6.432,1.077-.565-.6-1.107-1.175-1.635-1.736.082-.263.151-.483.218-.7,3.352-11.064,8.273-20.789,20.772-24.231a5.382,5.382,0,0,0,2.43-2.006c2.341-3.065,4.573-6.213,7.168-9.775C404.14,45.039,397.28,46.1,391.953,50.543ZM331.212,78.448c-.531,1.389-1.614,2.706-1.587,4.724l1.544,2.01c2.787,1.567,4.939-2.96,7.563-.36-2.645,4.06-6.921,6.321-10.426,9.432-2.168,1.923-5.557-.465-6.916,2.649h-1.6a20.2,20.2,0,0,1-6.356-6.725c-3.843,3.308-7.527,5.464-12.139,5.57-.268.006-.519.753-.78,1.154H297.3c-.5-2.431-4.208-1.28-4.916-3.938V83.121c3.738-9.222,8.659-17.173,15.574-23.039,1.184-2.163-.609-2.782-1.133-4.43,2.4-2.663,3.526-6.583,7.081-9.3h23.765c-2.418,2.456-4.118,4.662-6.27,6.277-7.26,5.446-12.429,12.7-18.033,19.609a13.117,13.117,0,0,0-3.037,11c.924,1.262,2.273.988,4.043.784,5-6.618,7.633-15,13.43-21.56S339.549,49.8,348.586,46.306H359c-3.028,8.5-4.4,9.656-11.907,13.426C339.219,63.687,334.272,70.449,331.212,78.448Z" transform="translate(387.533 20.494)" fill="#fff" fill-rule="evenodd"/>
  </g>
</svg>
