<svg xmlns="http://www.w3.org/2000/svg" width="24" height="24" viewBox="0 0 24 24">
  <g id="print" transform="translate(-1506.122 -48.122)">
    <rect id="Rectangle_1829" data-name="Rectangle 1829" width="24" height="24" transform="translate(1506.122 48.122)" fill="none"/>
    <path id="Path_5363" data-name="Path 5363" d="M480.931-5696.432a1.161,1.161,0,0,1-1.16-1.16v-3.054h-1.608a2.046,2.046,0,0,1-2.042-2.042v-6.658a2.045,2.045,0,0,1,2.042-2.042h1.608v-3.333a1.161,1.161,0,0,1,1.16-1.159h11.229a1.161,1.161,0,0,1,1.16,1.159v3.333h1.607a2.044,2.044,0,0,1,2.042,2.042v6.658a2.045,2.045,0,0,1-2.042,2.042H493.32v3.054a1.162,1.162,0,0,1-1.16,1.16Zm1.16-2.318H491v-4.419h-8.91Zm0-12.637H491v-2.172H482.09Z" transform="translate(1031.576 5766.278)" fill="#fff"/>
  </g>
</svg>
