<svg xmlns="http://www.w3.org/2000/svg" width="24" height="24" viewBox="0 0 24 24">
  <g id="searchi" transform="translate(-1060 -28)">
    <rect id="Rectangle_1785" data-name="Rectangle 1785" width="24" height="24" transform="translate(1060 28)" fill="none"/>
    <path id="Path_5361" data-name="Path 5361" d="M-2077.409,13.769l-4.823-4.823a8.54,8.54,0,0,1-5.006,1.577,8.7,8.7,0,0,1-6.188-2.573A8.7,8.7,0,0,1-2096,1.762a8.7,8.7,0,0,1,2.574-6.188A8.7,8.7,0,0,1-2087.238-7a8.7,8.7,0,0,1,6.188,2.574,8.7,8.7,0,0,1,2.572,6.188,8.544,8.544,0,0,1-1.576,5.006l4.823,4.823a1.526,1.526,0,0,1,0,2.179,1.538,1.538,0,0,1-1.091.462A1.533,1.533,0,0,1-2077.409,13.769ZM-2092.9,1.762a5.667,5.667,0,0,0,5.66,5.66,5.667,5.667,0,0,0,5.659-5.66,5.667,5.667,0,0,0-5.659-5.66A5.667,5.667,0,0,0-2092.9,1.762Z" transform="translate(3157.384 36.385)" fill="#fff"/>
  </g>
</svg>
