<svg xmlns="http://www.w3.org/2000/svg" width="24" height="48" viewBox="0 0 24 48">
  <g id="search_opn" transform="translate(-690 -471)">
    <g id="close" transform="translate(-370 467)">
      <rect id="Rectangle_1785" data-name="Rectangle 1785" width="24" height="24" transform="translate(1060 28)" fill="none"/>
      <g id="close-2" data-name="close" transform="translate(1062.707 28.97)">
        <g id="close_1_" transform="translate(0.001 1.844)">
          <path id="Path_5368" data-name="Path 5368" d="M1.762,20.8a1.76,1.76,0,0,1-1.25-.422,1.76,1.76,0,0,1,0-2.482L15.458,2.946a1.76,1.76,0,0,1,2.57,2.394L2.994,20.373a1.76,1.76,0,0,1-1.232.422Z" transform="translate(-0.001 -2.435)" fill="#fff"/>
          <path id="Path_5369" data-name="Path 5369" d="M18.129,20.2a1.761,1.761,0,0,1-1.232-.51L1.952,4.749A1.76,1.76,0,0,1,4.434,2.267L19.467,17.213a1.76,1.76,0,0,1,.082,2.488q-.04.042-.082.082a1.76,1.76,0,0,1-1.338.422Z" transform="translate(-1.44 -1.844)" fill="#fff"/>
        </g>
      </g>
    </g>
    <g id="searchi" transform="translate(-370 443)">
      <rect id="Rectangle_1785-2" data-name="Rectangle 1785" width="24" height="24" transform="translate(1060 28)" fill="none"/>
      <path id="Path_5361" data-name="Path 5361" d="M-2077.41,13.769l-4.823-4.823a8.541,8.541,0,0,1-5.006,1.577,8.7,8.7,0,0,1-6.188-2.573A8.7,8.7,0,0,1-2096,1.762a8.7,8.7,0,0,1,2.574-6.188A8.7,8.7,0,0,1-2087.24-7a8.7,8.7,0,0,1,6.188,2.574,8.7,8.7,0,0,1,2.572,6.188,8.543,8.543,0,0,1-1.576,5.006l4.823,4.823a1.526,1.526,0,0,1,.457,1.09,1.526,1.526,0,0,1-.457,1.089,1.538,1.538,0,0,1-1.091.462,1.533,1.533,0,0,1-1.086-.463ZM-2092.9,1.762a5.667,5.667,0,0,0,5.66,5.66,5.667,5.667,0,0,0,5.659-5.66,5.667,5.667,0,0,0-5.659-5.66,5.667,5.667,0,0,0-5.66,5.66Z" transform="translate(3157.384 36.385)" fill="#fff"/>
    </g>
  </g>
</svg>
