<svg xmlns="http://www.w3.org/2000/svg" width="20" height="20" viewBox="0 0 20 20">
  <g id="tg" transform="translate(-1506.122 -48.122)">
    <rect id="Rectangle_1829" data-name="Rectangle 1829" width="20" height="20" transform="translate(1506.122 48.122)" fill="none"/>
    <path id="Path_5366" data-name="Path 5366" d="M-210.146-2280.412a8.743,8.743,0,0,1-8.733-8.734,8.743,8.743,0,0,1,8.733-8.733,8.743,8.743,0,0,1,8.734,8.733A8.744,8.744,0,0,1-210.146-2280.412Zm-.084-6.469h0l2.085,1.537a.706.706,0,0,0,.335.1c.209,0,.351-.155.42-.459l1.368-6.454a.66.66,0,0,0-.074-.56.364.364,0,0,0-.294-.133.6.6,0,0,0-.208.041l-8.044,3.1c-.272.106-.425.245-.42.38,0,.115.123.218.327.281l2.056.645,4.777-3.009a.431.431,0,0,1,.224-.079c.049,0,.085.016.1.044s-.009.073-.059.117l-3.865,3.492-.149,2.124a.527.527,0,0,0,.418-.2l1.006-.968Z" transform="translate(1726.267 2347.267)" fill="#fff"/>
  </g>
</svg>
