<svg xmlns="http://www.w3.org/2000/svg" width="20" height="20" viewBox="0 0 20 20">
  <g id="tw" transform="translate(-1506.122 -48.122)">
    <rect id="Rectangle_1829" data-name="Rectangle 1829" width="20" height="20" transform="translate(1506.122 48.122)" fill="none"/>
    <path id="Path_5365" data-name="Path 5365" d="M-184.145-2259.412a8.676,8.676,0,0,1-6.175-2.558,8.676,8.676,0,0,1-2.558-6.175,8.744,8.744,0,0,1,8.733-8.734,8.744,8.744,0,0,1,8.734,8.734A8.743,8.743,0,0,1-184.145-2259.412Zm-4.631-5.823h0a5.4,5.4,0,0,0,2.913.853,5.355,5.355,0,0,0,5.407-5.407c0-.071,0-.147-.005-.246a3.842,3.842,0,0,0,.948-.984,3.772,3.772,0,0,1-1.091.3,1.9,1.9,0,0,0,.835-1.051,3.806,3.806,0,0,1-1.207.461,1.909,1.909,0,0,0-1.387-.6,1.9,1.9,0,0,0-1.9,1.9,1.915,1.915,0,0,0,.049.433,5.411,5.411,0,0,1-3.917-1.985,1.9,1.9,0,0,0-.257.956,1.9,1.9,0,0,0,.845,1.582,1.92,1.92,0,0,1-.861-.238v.024a1.905,1.905,0,0,0,1.524,1.864,1.926,1.926,0,0,1-.5.066,1.88,1.88,0,0,1-.357-.034,1.9,1.9,0,0,0,1.775,1.32,3.792,3.792,0,0,1-2.36.814A3.833,3.833,0,0,1-188.776-2265.235Z" transform="translate(1700.267 2326.267)" fill="#fff"/>
  </g>
</svg>
