<svg xmlns="http://www.w3.org/2000/svg" width="20" height="20" viewBox="0 0 20 20">
  <g id="wp" transform="translate(-1506.122 -48.122)">
    <rect id="Rectangle_1829" data-name="Rectangle 1829" width="20" height="20" transform="translate(1506.122 48.122)" fill="none"/>
    <path id="Path_21" data-name="Path 21" d="M-4022.441,17.114a8.537,8.537,0,0,1-4.385-1.208l-3.878,1.074,1.1-3.733a8.509,8.509,0,0,1-1.4-4.688,8.5,8.5,0,0,1,2.507-6.052A8.5,8.5,0,0,1-4022.441,0a8.506,8.506,0,0,1,6.053,2.506,8.5,8.5,0,0,1,2.506,6.049,8.5,8.5,0,0,1-2.506,6.052A8.505,8.505,0,0,1-4022.441,17.114Zm-3.17-12.826a2.031,2.031,0,0,0-.26.013,1.039,1.039,0,0,0-.656.412,2.806,2.806,0,0,0-.493.9c0,.018-.01.034-.016.051v0c0,.015-.009.03-.014.047A2.5,2.5,0,0,0-4027,7.238a8.371,8.371,0,0,0,.754,1.592,8.734,8.734,0,0,0,1.7,2.008,8.108,8.108,0,0,0,2.1,1.5,7.283,7.283,0,0,0,2.285.666q.108.01.218.01a2.539,2.539,0,0,0,.9-.165,2.354,2.354,0,0,0,.549-.3,1.773,1.773,0,0,0,.735-1.169v-.011a2.072,2.072,0,0,0,.011-.465.312.312,0,0,0-.18-.257l-1.3-.6-.253-.116-.523-.239a.2.2,0,0,0-.083-.018.188.188,0,0,0-.146.067l-.937,1.056a.261.261,0,0,1-.195.09.252.252,0,0,1-.1-.02,6.634,6.634,0,0,1-1.8-1.109,6.711,6.711,0,0,1-1.517-1.884,1.649,1.649,0,0,0,.644-.842s0-.007,0-.007a1.423,1.423,0,0,0-.032-.93,9.714,9.714,0,0,0-.705-1.606c-.02-.02-.043-.041-.051-.049a.629.629,0,0,0-.388-.155c-.05,0-.1,0-.158,0Z" transform="translate(5538.564 49.564)" fill="#fff"/>
  </g>
</svg>
