<svg xmlns="http://www.w3.org/2000/svg" width="24" height="24" viewBox="0 0 24 24">
  <g id="yt" transform="translate(-392 -114)">
    <rect id="Rectangle_1784" data-name="Rectangle 1784" width="24" height="24" transform="translate(392 114)" fill="none"/>
    <path id="youtube_1_" data-name="youtube (1)" d="M20.276-3.814a2.593,2.593,0,0,0-1.825-1.825c-1.62-.443-8.1-.443-8.1-.443s-6.48,0-8.1.426A2.646,2.646,0,0,0,.427-3.814,27.328,27.328,0,0,0,0,1.165,27.228,27.228,0,0,0,.427,6.145,2.594,2.594,0,0,0,2.252,7.969c1.637.443,8.1.443,8.1.443s6.48,0,8.1-.426a2.594,2.594,0,0,0,1.825-1.825A27.337,27.337,0,0,0,20.7,1.182a25.941,25.941,0,0,0-.426-5ZM8.288,4.269V-1.938l5.389,3.1Zm0,0" transform="translate(393.648 124.835)" fill="#fff"/>
  </g>
</svg>
